<mxfile host="app.diagrams.net" agent="Mozilla/5.0 (Windows NT 10.0; Win64; x64) AppleWebKit/537.36 (KHTML, like Gecko) Chrome/108.0.0.0 Safari/537.36" version="26.0.11">
  <diagram name="Page-1" id="LwJP1VQgxA3BE027ZnxK">
    <mxGraphModel dx="613" dy="642" grid="1" gridSize="10" guides="1" tooltips="1" connect="1" arrows="1" fold="1" page="1" pageScale="1" pageWidth="850" pageHeight="1100" math="0" shadow="0">
      <root>
        <mxCell id="0" />
        <mxCell id="1" parent="0" />
        <mxCell id="5yb4_tnO4dta0i6kvWAJ-1" value="外部测试工具" style="rounded=0;whiteSpace=wrap;html=1;" vertex="1" parent="1">
          <mxGeometry x="140" y="160" width="310" height="60" as="geometry" />
        </mxCell>
        <mxCell id="5yb4_tnO4dta0i6kvWAJ-4" value="" style="edgeStyle=orthogonalEdgeStyle;rounded=0;orthogonalLoop=1;jettySize=auto;html=1;" edge="1" parent="1" source="5yb4_tnO4dta0i6kvWAJ-2" target="5yb4_tnO4dta0i6kvWAJ-3">
          <mxGeometry relative="1" as="geometry" />
        </mxCell>
        <mxCell id="5yb4_tnO4dta0i6kvWAJ-2" value=" 实际跑TCP/IP一致性用例的控制程序 (发送  Upper Tester指令，如OpenSock...)" style="rounded=0;whiteSpace=wrap;html=1;" vertex="1" parent="1">
          <mxGeometry x="140" y="220" width="310" height="60" as="geometry" />
        </mxCell>
        <mxCell id="5yb4_tnO4dta0i6kvWAJ-6" value="" style="edgeStyle=orthogonalEdgeStyle;rounded=0;orthogonalLoop=1;jettySize=auto;html=1;" edge="1" parent="1" source="5yb4_tnO4dta0i6kvWAJ-3" target="5yb4_tnO4dta0i6kvWAJ-5">
          <mxGeometry relative="1" as="geometry" />
        </mxCell>
        <mxCell id="5yb4_tnO4dta0i6kvWAJ-3" value="AUTOSAR Testability Protocol" style="text;whiteSpace=wrap;html=1;" vertex="1" parent="1">
          <mxGeometry x="200" y="310" width="190" height="40" as="geometry" />
        </mxCell>
        <mxCell id="5yb4_tnO4dta0i6kvWAJ-5" value="DUT" style="whiteSpace=wrap;html=1;align=left;" vertex="1" parent="1">
          <mxGeometry x="80" y="420" width="430" height="160" as="geometry" />
        </mxCell>
        <mxCell id="5yb4_tnO4dta0i6kvWAJ-13" value="" style="edgeStyle=orthogonalEdgeStyle;rounded=0;orthogonalLoop=1;jettySize=auto;html=1;" edge="1" parent="1" source="5yb4_tnO4dta0i6kvWAJ-7" target="5yb4_tnO4dta0i6kvWAJ-8">
          <mxGeometry relative="1" as="geometry" />
        </mxCell>
        <mxCell id="5yb4_tnO4dta0i6kvWAJ-7" value="Upper Tester" style="rounded=0;whiteSpace=wrap;html=1;" vertex="1" parent="1">
          <mxGeometry x="160" y="460" width="100" height="30" as="geometry" />
        </mxCell>
        <mxCell id="5yb4_tnO4dta0i6kvWAJ-8" value="AUTOSAR TCP/IP BSW" style="rounded=0;whiteSpace=wrap;html=1;" vertex="1" parent="1">
          <mxGeometry x="160" y="515" width="100" height="30" as="geometry" />
        </mxCell>
        <mxCell id="5yb4_tnO4dta0i6kvWAJ-10" value="" style="edgeStyle=orthogonalEdgeStyle;rounded=0;orthogonalLoop=1;jettySize=auto;html=1;" edge="1" parent="1" source="5yb4_tnO4dta0i6kvWAJ-9" target="5yb4_tnO4dta0i6kvWAJ-8">
          <mxGeometry relative="1" as="geometry" />
        </mxCell>
        <mxCell id="5yb4_tnO4dta0i6kvWAJ-9" value="Autosar TCP/IP Stack" style="text;whiteSpace=wrap;html=1;" vertex="1" parent="1">
          <mxGeometry x="290" y="510" width="150" height="40" as="geometry" />
        </mxCell>
        <mxCell id="5yb4_tnO4dta0i6kvWAJ-11" value="" style="edgeStyle=orthogonalEdgeStyle;rounded=0;orthogonalLoop=1;jettySize=auto;html=1;" edge="1" parent="1" source="5yb4_tnO4dta0i6kvWAJ-12">
          <mxGeometry relative="1" as="geometry">
            <mxPoint x="260" y="475" as="targetPoint" />
          </mxGeometry>
        </mxCell>
        <mxCell id="5yb4_tnO4dta0i6kvWAJ-12" value="实际是一个SWC或进程" style="text;whiteSpace=wrap;html=1;" vertex="1" parent="1">
          <mxGeometry x="290" y="455" width="150" height="40" as="geometry" />
        </mxCell>
        <mxCell id="5yb4_tnO4dta0i6kvWAJ-14" value="(函数/原语调用)" style="text;whiteSpace=wrap;html=1;" vertex="1" parent="1">
          <mxGeometry x="210" y="490" width="120" height="40" as="geometry" />
        </mxCell>
      </root>
    </mxGraphModel>
  </diagram>
</mxfile>
